<svg xmlns="http://www.w3.org/2000/svg" xmlns:xlink="http://www.w3.org/1999/xlink" version="1.1" data-diagram-type="DESCRIPTION" style="width:654px;height:403px;background:#FFFFFF;" width="654px" height="403px" viewBox="0 0 654 403" zoomAndPan="magnify" preserveAspectRatio="none" contentStyleType="text/css"><?plantuml 1.2026.8beta1?><defs/><g font-family="sans-serif" lengthAdjust="spacing"><!--cluster DBLX--><g class="cluster" data-qualified-name="DBLX" id="ent0001" data-source-line="21"><rect x="199" y="143.97" width="207" height="245.44" fill="#EAF2FB" style="stroke:#777;stroke-width:1;" rx="2.5" ry="2.5"/><text x="226.976" y="157.109" fill="#000" font-size="12" textLength="151.049" font-weight="700">DataBase CSCI (Linux)</text></g><!--cluster LINDOM--><g class="cluster" data-qualified-name="LINDOM" id="ent0004" data-source-line="26"><rect x="192" y="7" width="188" height="81.97" fill="#FFF" style="stroke:#777;stroke-width:1;" rx="2.5" ry="2.5"/><text x="240.572" y="20.139" fill="#000" font-size="12" textLength="90.855" font-weight="700">Linux domain</text></g><!--cluster AOCS--><g class="cluster" data-qualified-name="AOCS" id="ent0006" data-source-line="29"><rect x="7" y="151.97" width="160" height="81.97" fill="#FFF" style="stroke:#777;stroke-width:1;" rx="2.5" ry="2.5"/><text x="51.082" y="165.109" fill="#000" font-size="12" textLength="71.836" font-weight="700">AOCS CSCI</text></g><!--cluster DBRT--><g class="cluster" data-qualified-name="DBRT" id="ent0008" data-source-line="32"><rect x="438" y="294.94" width="202" height="90.97" fill="#FFF" style="stroke:#777;stroke-width:1;" rx="2.5" ry="2.5"/><text x="445.953" y="308.079" fill="#000" font-size="12" textLength="186.094" font-weight="700">DataBase CSCI — RTOS half</text></g><!--entity COMP--><g class="entity" data-qualified-name="DBLX.COMP" id="ent0002" data-source-line="22"><rect x="222.84" y="183.97" width="126.318" height="33.969" fill="#FFF" style="stroke:#333;stroke-width:0.5;" rx="2.5" ry="2.5"/><text x="232.84" y="205.109" fill="#000" font-size="12" textLength="78.129">Compression</text><text x="310.969" y="205.109" fill="#000" font-size="12"> </text><text x="314.783" y="205.109" fill="#000" font-size="12" textLength="24.375">CSC</text></g><!--entity META--><g class="entity" data-qualified-name="DBLX.META" id="ent0003" data-source-line="23"><rect x="222.68" y="331.44" width="106.637" height="33.969" fill="#FFF" style="stroke:#333;stroke-width:0.5;" rx="2.5" ry="2.5"/><text x="232.68" y="352.579" fill="#000" font-size="12" textLength="58.447">MetaData</text><text x="291.127" y="352.579" fill="#000" font-size="12"> </text><text x="294.942" y="352.579" fill="#000" font-size="12" textLength="24.375">CSC</text></g><!--entity PAY--><g class="entity" data-qualified-name="LINDOM.PAY" id="ent0005" data-source-line="27"><rect x="207.87" y="39" width="156.254" height="33.969" fill="#F0F0F0" style="stroke:#333;stroke-width:0.5;" rx="2.5" ry="2.5"/><text x="217.87" y="60.139" fill="#000" font-size="12" textLength="47.338">Payload</text><text x="265.208" y="60.139" fill="#000" font-size="12"> </text><text x="269.022" y="60.139" fill="#000" font-size="12" textLength="53.373">Software</text><text x="322.395" y="60.139" fill="#000" font-size="12"> </text><text x="326.21" y="60.139" fill="#000" font-size="12" textLength="27.914">CSCI</text></g><!--entity FILTER--><g class="entity" data-qualified-name="AOCS.FILTER" id="ent0007" data-source-line="30"><rect x="23.1" y="183.97" width="127.801" height="33.969" fill="#F0F0F0" style="stroke:#333;stroke-width:0.5;" rx="2.5" ry="2.5"/><text x="33.1" y="205.109" fill="#000" font-size="12" textLength="45.205">Kalman</text><text x="78.305" y="205.109" fill="#000" font-size="12"> </text><text x="82.12" y="205.109" fill="#000" font-size="12" textLength="30.592">Filter</text><text x="112.711" y="205.109" fill="#000" font-size="12"> </text><text x="116.526" y="205.109" fill="#000" font-size="12" textLength="24.375">CSC</text></g><!--entity DBUF--><g class="entity" data-qualified-name="DBRT.DBUF" id="ent0009" data-source-line="33"><path d="M454.37,336.94 C454.37,326.94 513,326.94 513,326.94 C513,326.94 571.63,326.94 571.63,336.94 L571.63,359.909 C571.63,369.909 513,369.909 513,369.909 C513,369.909 454.37,369.909 454.37,359.909 L454.37,336.94" style="stroke:#333;stroke-width:0.5;" fill="#F0F0F0"/><path d="M454.37,336.94 C454.37,346.94 513,346.94 513,346.94 C513,346.94 571.63,346.94 571.63,336.94" style="stroke:#333;stroke-width:0.5;" fill="none"/><text x="464.37" y="362.079" fill="#000" font-size="12" textLength="28.652">Data</text><text x="493.022" y="362.079" fill="#000" font-size="12"> </text><text x="496.837" y="362.079" fill="#000" font-size="12" textLength="36.604">Buffer</text><text x="533.44" y="362.079" fill="#000" font-size="12"> </text><text x="537.255" y="362.079" fill="#000" font-size="12" textLength="24.375">CSC</text></g><!--link COMP to META--><g class="link" data-entity-1="ent0002" data-entity-2="ent0003" id="lnk10" data-source-line="36" data-link-type="dependency"><path d="M284.87,218.36 C282.94,246.45 279.373,298.422 277.453,326.312" style="stroke:#181818;stroke-width:1;" fill="none" id="COMP-to-META"/><polygon points="277.11,331.3,281.719,322.596,277.453,326.312,273.738,322.047,277.11,331.3" fill="#181818" style="stroke:#181818;stroke-width:1;stroke-linejoin:miter;stroke-miterlimit:10;"/><text x="308.378" y="262.079" fill="#000" font-size="12" textLength="70.746">checksums,</text><text x="284" y="276.047" fill="#000" font-size="12" textLength="22.775">PVT</text><text x="306.775" y="276.047" fill="#000" font-size="12"> </text><text x="310.59" y="276.047" fill="#000" font-size="12" textLength="27.029">data</text><text x="337.619" y="276.047" fill="#000" font-size="12"> </text><text x="341.434" y="276.047" fill="#000" font-size="12" textLength="12.059">at</text><text x="353.492" y="276.047" fill="#000" font-size="12"> </text><text x="357.307" y="276.047" fill="#000" font-size="12" textLength="46.195">capture</text></g><!--link PAY to COMP--><g class="link" data-entity-1="ent0005" data-entity-2="ent0002" id="lnk11" data-source-line="38" data-link-type="dependency"><path d="M286,73.39 C286,100.97 286,151.3 286,178.75" style="stroke:#181818;stroke-width:1;" fill="none" id="PAY-to-COMP"/><polygon points="286,183.75,290,174.75,286,178.75,282,174.75,286,183.75" fill="#181818" style="stroke:#181818;stroke-width:1;stroke-linejoin:miter;stroke-miterlimit:10;"/><text x="287" y="117.109" fill="#000" font-size="12" textLength="43.629">images</text></g><!--link FILTER to META--><g class="link" data-entity-1="ent0007" data-entity-2="ent0003" id="lnk12" data-source-line="39" data-link-type="dependency"><path d="M105.41,218.4 C123.5,234.35 152.09,259 178,278.94 C202.34,297.68 227.14,314.851 247.24,328.361" style="stroke:#00F;stroke-width:1;stroke-dasharray:7,7;" fill="none" id="FILTER-to-META"/><polygon points="251.39,331.15,246.152,322.81,247.24,328.361,241.689,329.449,251.39,331.15" fill="#00F" style="stroke:#00F;stroke-width:1;stroke-linejoin:miter;stroke-miterlimit:10;"/><text x="184.247" y="262.079" fill="#000" font-size="12" textLength="17.684">TM</text><text x="201.931" y="262.079" fill="#000" font-size="12"> </text><text x="205.745" y="262.079" fill="#000" font-size="12" textLength="27.457">(PVT</text><text x="233.202" y="262.079" fill="#000" font-size="12"> </text><text x="237.017" y="262.079" fill="#000" font-size="12" textLength="31.711">data)</text><text x="179" y="276.047" fill="#000" font-size="12" textLength="38.713">during</text><text x="217.713" y="276.047" fill="#000" font-size="12"> </text><text x="221.527" y="276.047" fill="#000" font-size="12" textLength="52.447">captures</text></g><!--link DBLX to DBUF--><g class="link" data-entity-1="ent0001" data-entity-2="ent0009" id="lnk13" data-source-line="40" data-link-type="dependency"><path d="M406.011,212.092 C406.192,212.321 406.376,212.554 406.563,212.79 C406.936,213.262 407.32,213.747 407.713,214.245 C408.501,215.241 409.328,216.288 410.193,217.382 C417.111,226.132 426.412,237.896 436.604,250.788 C456.988,276.57 477.834,302.938 493.409,322.638" style="stroke:#181818;stroke-width:1;stroke-dasharray:7,7;" fill="none" id="DBLX-to-DBUF"/><polygon points="496.51,326.56,494.066,317.019,493.409,322.638,487.79,321.981,496.51,326.56" fill="#181818" style="stroke:#181818;stroke-width:1;stroke-linejoin:miter;stroke-miterlimit:10;"/><text x="456" y="262.079" fill="#000" font-size="12" textLength="47.338">Payload</text><text x="503.338" y="262.079" fill="#000" font-size="12"> </text><text x="507.152" y="262.079" fill="#000" font-size="12" textLength="17.684">TM</text><text x="524.836" y="262.079" fill="#000" font-size="12"> </text><text x="528.65" y="262.079" fill="#000" font-size="12" textLength="22.576">and</text><text x="551.227" y="262.079" fill="#000" font-size="12"> </text><text x="555.041" y="262.079" fill="#000" font-size="12" textLength="28.652">Data</text><text x="476.051" y="276.047" fill="#000" font-size="12" textLength="48.105">(classes</text><text x="524.156" y="276.047" fill="#000" font-size="12"> </text><text x="527.971" y="276.047" fill="#000" font-size="12" textLength="35.672">3/4/5)</text></g><?plantuml-src dPFFZjem4CRlVeeHN43giXHsrOf39HA8X4eA8ka_bHvcOmSi73ko7T5jLQaFqIViapHs8HksxQ5rBlRuczzyCrRCWSiIDHQGgQ9KaacRs7l1GBFCejm9HamZAJ4xu8xzNM3sIDMHontaA4pxHYhA32jXF6m5DSg32zu-RmKfox4IDbAr4_wPmTDHw_AeiNpBgTt3w6RukpFuGW22Uh_Jgf8qL49fw4P-kHkbATEdw3E_oDSMfHd1lt36VbrmA5gyGyF-2qFElNHcDIPmc3095z1RSbbzwdS03So2vJlepgVHA0fyaGVddR3UQcOCLz8bUdsuYjUNgfXPTFn64i_JwKLrNmweAf1BhrWkNirMyUDoQxmN2YaaAhT7rB_CUlrw-hvkTkY-6jnmfwimUH3vqoFaInG5IeYui4mt1gF5Cfrl_aIydDEFRzzXawuIsAF8JzFQfBv6you-1O8gpri5Pi7hg8KdRcXmTVN2ZmOcaErPTZ1LOPvivVfDwcc05Z8iRQKP8QvXf_U94-15xSwGa-_1X-wTgDZ7GSDBO-YTEVsjf9LsFyw9PeX_uq4jzxucS1vqdOQIWkjWAtkPG6EOWV7rpVLj_oS0?></g></svg>