<svg xmlns="http://www.w3.org/2000/svg" xmlns:xlink="http://www.w3.org/1999/xlink" version="1.1" data-diagram-type="DESCRIPTION" style="width:1086px;height:665px;background:#FFFFFF;" width="1086px" height="665px" viewBox="0 0 1086 665" zoomAndPan="magnify" preserveAspectRatio="none" contentStyleType="text/css"><?plantuml 1.2026.8beta1?><defs/><g font-family="sans-serif" lengthAdjust="spacing"><!--cluster FDIR--><g class="cluster" data-qualified-name="FDIR" id="ent0001" data-source-line="27"><rect x="618.47" y="11.5" width="228" height="350.4" fill="#EAF2FB" style="stroke:#777;stroke-width:1;" rx="2.5" ry="2.5"/><text x="699.089" y="24.639" fill="#000" font-size="12" textLength="66.762" font-weight="700">FDIR CSCI</text></g><!--cluster DBRT--><g class="cluster" data-qualified-name="DBRT" id="ent0005" data-source-line="34"><rect x="870.47" y="7" width="202" height="90.97" fill="#FFF" style="stroke:#777;stroke-width:1;" rx="2.5" ry="2.5"/><text x="878.423" y="20.139" fill="#000" font-size="12" textLength="186.094" font-weight="700">DataBase CSCI — RTOS half</text></g><!--cluster HM--><g class="cluster" data-qualified-name="HM" id="ent0007" data-source-line="37"><rect x="62.47" y="279.93" width="308" height="81.97" fill="#FFF" style="stroke:#777;stroke-width:1;" rx="2.5" ry="2.5"/><text x="100.715" y="293.069" fill="#000" font-size="12" textLength="231.51" font-weight="700">Health Monitoring (Platform) CSCI</text></g><!--cluster IFACE--><g class="cluster" data-qualified-name="IFACE" id="ent0010" data-source-line="41"><rect x="601.47" y="424.9" width="262" height="81.97" fill="#FFF" style="stroke:#777;stroke-width:1;" rx="2.5" ry="2.5"/><text x="686.776" y="438.039" fill="#000" font-size="12" textLength="91.389" font-weight="700">I/O interfaces</text></g><!--cluster AOCS--><g class="cluster" data-qualified-name="AOCS" id="ent0012" data-source-line="44"><rect x="394.47" y="279.93" width="200" height="81.97" fill="#FFF" style="stroke:#777;stroke-width:1;" rx="2.5" ry="2.5"/><text x="458.552" y="293.069" fill="#000" font-size="12" textLength="71.836" font-weight="700">AOCS CSCI</text></g><!--cluster LINDOM--><g class="cluster" data-qualified-name="LINDOM" id="ent0014" data-source-line="47"><rect x="211.47" y="416.9" width="218" height="97.97" fill="#FFF" style="stroke:#777;stroke-width:1;" rx="2.5" ry="2.5"/><text x="275.042" y="430.039" fill="#000" font-size="12" textLength="90.855" font-weight="700">Linux domain</text></g><!--cluster PHW--><g class="cluster" data-qualified-name="PHW" id="ent0016" data-source-line="50"><rect x="637.47" y="569.87" width="190" height="81.97" fill="#FFF" style="stroke:#777;stroke-width:1;" rx="2.5" ry="2.5"/><text x="668.872" y="583.009" fill="#000" font-size="12" textLength="127.195" font-weight="700">Platform hardware</text></g><!--entity BOOT--><g class="entity" data-qualified-name="FDIR.BOOT" id="ent0002" data-source-line="28"><rect x="636.56" y="43.5" width="75.811" height="33.969" fill="#FFF" style="stroke:#333;stroke-width:0.5;" rx="2.5" ry="2.5"/><text x="646.56" y="64.639" fill="#000" font-size="12" textLength="27.621">Boot</text><text x="674.181" y="64.639" fill="#000" font-size="12"> </text><text x="677.996" y="64.639" fill="#000" font-size="12" textLength="24.375">CSC</text></g><!--entity STATES--><g class="entity" data-qualified-name="FDIR.STATES" id="ent0003" data-source-line="29"><rect x="634.37" y="171.97" width="86.205" height="33.969" fill="#FFF" style="stroke:#333;stroke-width:0.5;" rx="2.5" ry="2.5"/><text x="644.37" y="193.109" fill="#000" font-size="12" textLength="38.016">States</text><text x="682.386" y="193.109" fill="#000" font-size="12"> </text><text x="686.2" y="193.109" fill="#000" font-size="12" textLength="24.375">CSC</text></g><!--entity PPC--><g class="entity" data-qualified-name="FDIR.PPC" id="ent0004" data-source-line="30"><rect x="634.13" y="311.93" width="196.678" height="33.969" fill="#FFF" style="stroke:#333;stroke-width:0.5;" rx="2.5" ry="2.5"/><text x="644.13" y="333.069" fill="#000" font-size="12" textLength="36.709">Power</text><text x="680.839" y="333.069" fill="#000" font-size="12"> </text><text x="684.653" y="333.069" fill="#000" font-size="12">&amp;</text><text x="694.011" y="333.069" fill="#000" font-size="12"> </text><text x="697.825" y="333.069" fill="#000" font-size="12" textLength="47.338">Payload</text><text x="745.163" y="333.069" fill="#000" font-size="12"> </text><text x="748.978" y="333.069" fill="#000" font-size="12" textLength="43.641">Control</text><text x="792.618" y="333.069" fill="#000" font-size="12"> </text><text x="796.433" y="333.069" fill="#000" font-size="12" textLength="24.375">CSC</text></g><!--entity CFG--><g class="entity" data-qualified-name="DBRT.CFG" id="ent0006" data-source-line="35"><path d="M886.56,49 C886.56,39 954.471,39 954.471,39 C954.471,39 1022.382,39 1022.382,49 L1022.382,71.969 C1022.382,81.969 954.471,81.969 954.471,81.969 C954.471,81.969 886.56,81.969 886.56,71.969 L886.56,49" style="stroke:#333;stroke-width:0.5;" fill="#F0F0F0"/><path d="M886.56,49 C886.56,59 954.471,59 954.471,59 C954.471,59 1022.382,59 1022.382,49" style="stroke:#333;stroke-width:0.5;" fill="none"/><text x="896.56" y="74.139" fill="#000" font-size="12" textLength="87.633">Configurations</text><text x="984.193" y="74.139" fill="#000" font-size="12"> </text><text x="988.007" y="74.139" fill="#000" font-size="12" textLength="24.375">CSC</text></g><!--entity HMON--><g class="entity" data-qualified-name="HM.HMON" id="ent0008" data-source-line="38"><rect x="216.96" y="311.93" width="137.023" height="33.969" fill="#F0F0F0" style="stroke:#333;stroke-width:0.5;" rx="2.5" ry="2.5"/><text x="226.96" y="333.069" fill="#000" font-size="12" textLength="39.404">Health</text><text x="266.364" y="333.069" fill="#000" font-size="12"> </text><text x="270.179" y="333.069" fill="#000" font-size="12" textLength="45.615">Monitor</text><text x="315.794" y="333.069" fill="#000" font-size="12"> </text><text x="319.608" y="333.069" fill="#000" font-size="12" textLength="24.375">CSC</text></g><!--entity WD--><g class="entity" data-qualified-name="HM.WD" id="ent0009" data-source-line="39"><rect x="78.02" y="311.93" width="108.893" height="33.969" fill="#F0F0F0" style="stroke:#333;stroke-width:0.5;" rx="2.5" ry="2.5"/><text x="88.02" y="333.069" fill="#000" font-size="12" textLength="60.703">Watchdog</text><text x="148.723" y="333.069" fill="#000" font-size="12"> </text><text x="152.538" y="333.069" fill="#000" font-size="12" textLength="24.375">CSC</text></g><!--entity PDUIF--><g class="entity" data-qualified-name="IFACE.PDUIF" id="ent0011" data-source-line="42"><rect x="617.59" y="456.9" width="229.754" height="33.969" fill="#F0F0F0" style="stroke:#333;stroke-width:0.5;" rx="2.5" ry="2.5"/><text x="627.59" y="478.039" fill="#000" font-size="12" textLength="87.363">Commandable</text><text x="714.953" y="478.039" fill="#000" font-size="12"> </text><text x="718.768" y="478.039" fill="#000" font-size="12" textLength="36.709">Power</text><text x="755.477" y="478.039" fill="#000" font-size="12"> </text><text x="759.291" y="478.039" fill="#000" font-size="12" textLength="49.811">Delivery</text><text x="809.102" y="478.039" fill="#000" font-size="12"> </text><text x="812.916" y="478.039" fill="#000" font-size="12" textLength="24.428">Unit</text></g><!--entity SATORIENT--><g class="entity" data-qualified-name="AOCS.SATORIENT" id="ent0013" data-source-line="45"><rect x="410.02" y="311.93" width="168.898" height="33.969" fill="#F0F0F0" style="stroke:#333;stroke-width:0.5;" rx="2.5" ry="2.5"/><text x="420.02" y="333.069" fill="#000" font-size="12" textLength="49.148">Satellite</text><text x="469.168" y="333.069" fill="#000" font-size="12"> </text><text x="472.983" y="333.069" fill="#000" font-size="12" textLength="67.746">Orientation</text><text x="540.729" y="333.069" fill="#000" font-size="12"> </text><text x="544.543" y="333.069" fill="#000" font-size="12" textLength="24.375">CSC</text></g><!--entity PAY--><g class="entity" data-qualified-name="LINDOM.PAY" id="ent0015" data-source-line="48"><rect x="249.34" y="456.9" width="156.254" height="33.969" fill="#F0F0F0" style="stroke:#333;stroke-width:0.5;" rx="2.5" ry="2.5"/><text x="259.34" y="478.039" fill="#000" font-size="12" textLength="47.338">Payload</text><text x="306.678" y="478.039" fill="#000" font-size="12"> </text><text x="310.492" y="478.039" fill="#000" font-size="12" textLength="53.373">Software</text><text x="363.865" y="478.039" fill="#000" font-size="12"> </text><text x="367.68" y="478.039" fill="#000" font-size="12" textLength="27.914">CSCI</text></g><!--entity PDUHW--><g class="entity" data-qualified-name="PHW.PDUHW" id="ent0017" data-source-line="51"><rect x="653.08" y="601.87" width="158.773" height="33.969" fill="#F0F0F0" style="stroke:#333;stroke-width:0.5;" rx="2.5" ry="2.5"/><text x="663.08" y="623.009" fill="#000" font-size="12" textLength="36.709">Power</text><text x="699.789" y="623.009" fill="#000" font-size="12"> </text><text x="703.603" y="623.009" fill="#000" font-size="12" textLength="70.008">Distribution</text><text x="773.611" y="623.009" fill="#000" font-size="12"> </text><text x="777.426" y="623.009" fill="#000" font-size="12" textLength="24.428">Unit</text></g><!--link BOOT to STATES--><g class="link" data-entity-1="ent0002" data-entity-2="ent0003" id="lnk18" data-source-line="55" data-link-type="dependency"><path d="M674.85,77.76 C675.43,102.04 676.393,142.491 676.963,166.741" style="stroke:#181818;stroke-width:1;" fill="none" id="BOOT-to-STATES"/><polygon points="677.08,171.74,680.867,162.648,676.963,166.741,672.87,162.836,677.08,171.74" fill="#181818" style="stroke:#181818;stroke-width:1;stroke-linejoin:miter;stroke-miterlimit:10;"/><text x="676.47" y="133.109" fill="#000" font-size="12" textLength="32.332">Linux</text><text x="708.802" y="133.109" fill="#000" font-size="12"> </text><text x="712.616" y="133.109" fill="#000" font-size="12" textLength="50.66">bring-up</text><text x="763.277" y="133.109" fill="#000" font-size="12"> </text><text x="767.091" y="133.109" fill="#000" font-size="12" textLength="34.213">result</text></g><!--link STATES to PPC--><g class="link" data-entity-1="ent0003" data-entity-2="ent0004" id="lnk19" data-source-line="56" data-link-type="dependency"><path d="M683.99,206.32 C694.58,232.87 713.518,280.385 724.098,306.925" style="stroke:#181818;stroke-width:1;" fill="none" id="STATES-to-PPC"/><polygon points="725.95,311.57,726.333,301.729,724.098,306.925,718.902,304.691,725.95,311.57" fill="#181818" style="stroke:#181818;stroke-width:1;stroke-linejoin:miter;stroke-miterlimit:10;"/><text x="707.47" y="254.069" fill="#000" font-size="12" textLength="57.17">transition</text><text x="764.64" y="254.069" fill="#000" font-size="12"> </text><text x="768.454" y="254.069" fill="#000" font-size="12" textLength="43.189">actions</text></g><!--link CFG to STATES--><g class="link" data-entity-1="ent0006" data-entity-2="ent0003" id="lnk20" data-source-line="59" data-link-type="dependency"><path d="M921.13,82.34 C892.1,99.96 848.49,125.1 808.47,142.97 C780.03,155.66 751.61,165.52 725.76,173.65" style="stroke:#181818;stroke-width:1;" fill="none" id="CFG-to-STATES"/><polygon points="720.99,175.15,730.775,176.266,725.76,173.65,728.375,168.634,720.99,175.15" fill="#181818" style="stroke:#181818;stroke-width:1;stroke-linejoin:miter;stroke-miterlimit:10;"/><text x="866.47" y="126.109" fill="#000" font-size="12" textLength="57.17">transition</text><text x="923.64" y="126.109" fill="#000" font-size="12"> </text><text x="927.454" y="126.109" fill="#000" font-size="12" textLength="34.207">table,</text><text x="872.444" y="140.077" fill="#000" font-size="12" textLength="27.006">boot</text><text x="899.449" y="140.077" fill="#000" font-size="12"> </text><text x="903.264" y="140.077" fill="#000" font-size="12" textLength="52.424">counters</text></g><!--link HMON to STATES--><g class="link" data-entity-1="ent0008" data-entity-2="ent0003" id="lnk21" data-source-line="60" data-link-type="dependency"><path d="M311.74,311.44 C354.07,284.9 432.81,235.58 434.47,234.93 C501.26,208.99 579.342,198.219 629.022,193.539" style="stroke:#181818;stroke-width:1;" fill="none" id="HMON-to-STATES"/><polygon points="634,193.07,624.665,189.932,629.022,193.539,625.415,197.896,634,193.07" fill="#181818" style="stroke:#181818;stroke-width:1;stroke-linejoin:miter;stroke-miterlimit:10;"/><text x="435.47" y="254.069" fill="#000" font-size="12" textLength="34.664">alarm</text><text x="470.134" y="254.069" fill="#000" font-size="12"> </text><text x="473.949" y="254.069" fill="#000" font-size="12" textLength="40.43">events</text></g><!--link STATES to WD--><g class="link" data-entity-1="ent0003" data-entity-2="ent0009" id="lnk22" data-source-line="61" data-link-type="dependency"><path d="M633.88,192.1 C542.69,197.03 334.78,210.62 268.47,234.93 C246.83,242.87 246.15,253.75 225.47,263.93 C215.38,268.9 211.33,266.53 201.47,271.93 C181.86,282.69 165.982,295.815 152.732,308.135" style="stroke:#181818;stroke-width:1;" fill="none" id="STATES-to-WD"/><polygon points="149.07,311.54,158.385,308.341,152.732,308.135,152.937,302.482,149.07,311.54" fill="#181818" style="stroke:#181818;stroke-width:1;stroke-linejoin:miter;stroke-miterlimit:10;"/><text x="269.47" y="254.069" fill="#000" font-size="12" textLength="28.02">FDIR</text><text x="297.49" y="254.069" fill="#000" font-size="12"> </text><text x="301.304" y="254.069" fill="#000" font-size="12" textLength="25.26">task</text><text x="326.564" y="254.069" fill="#000" font-size="12"> </text><text x="330.378" y="254.069" fill="#000" font-size="12" textLength="50.402">check-in</text></g><!--link PPC to PDUIF--><g class="link" data-entity-1="ent0004" data-entity-2="ent0011" id="lnk23" data-source-line="62" data-link-type="dependency"><path d="M732.47,346.32 C732.47,373.9 732.47,424.23 732.47,451.68" style="stroke:#181818;stroke-width:1;" fill="none" id="PPC-to-PDUIF"/><polygon points="732.47,456.68,736.47,447.68,732.47,451.68,728.47,447.68,732.47,456.68" fill="#181818" style="stroke:#181818;stroke-width:1;stroke-linejoin:miter;stroke-miterlimit:10;"/><text x="733.47" y="390.039" fill="#000" font-size="12" textLength="37.09">power</text><text x="770.56" y="390.039" fill="#000" font-size="12"> </text><text x="774.374" y="390.039" fill="#000" font-size="12" textLength="56.865">switching</text><text x="831.24" y="390.039" fill="#000" font-size="12"> </text><text x="835.054" y="390.039" fill="#000" font-size="12" textLength="54.686">authority</text></g><!--link STATES to SATORIENT--><g class="link" data-entity-1="ent0003" data-entity-2="ent0013" id="lnk24" data-source-line="63" data-link-type="dependency"><path d="M633.96,196.44 C606.09,202.46 570.58,213.83 545.47,234.93 C520.94,255.54 507.78,286.35 500.85,307.01" style="stroke:#181818;stroke-width:1;" fill="none" id="STATES-to-SATORIENT"/><polygon points="499.26,311.75,505.914,304.489,500.85,307.01,498.33,301.945,499.26,311.75" fill="#181818" style="stroke:#181818;stroke-width:1;stroke-linejoin:miter;stroke-miterlimit:10;"/><text x="547.144" y="247.069" fill="#000" font-size="12" textLength="56.18">Recovery</text><text x="603.324" y="247.069" fill="#000" font-size="12"> </text><text x="607.138" y="247.069" fill="#000" font-size="12" textLength="31.729">entry</text><text x="638.866" y="247.069" fill="#000" font-size="12"> </text><text x="642.681" y="247.069" fill="#000" font-size="12" textLength="22.576">and</text><text x="665.257" y="247.069" fill="#000" font-size="12"> </text><text x="669.072" y="247.069" fill="#000" font-size="12" textLength="19.693">the</text><text x="546.47" y="261.037" fill="#000" font-size="12" textLength="33">initial</text><text x="579.47" y="261.037" fill="#000" font-size="12"> </text><text x="583.284" y="261.037" fill="#000" font-size="12" textLength="65.643">orientation</text><text x="648.927" y="261.037" fill="#000" font-size="12"> </text><text x="652.741" y="261.037" fill="#000" font-size="12" textLength="36.697">target</text></g><!--link PPC to PAY--><g class="link" data-entity-1="ent0004" data-entity-2="ent0015" id="lnk25" data-source-line="64" data-link-type="dependency"><path d="M686.01,346.32 C608.09,373.82 456.695,427.265 378.725,454.795" style="stroke:#181818;stroke-width:1;stroke-dasharray:7,7;" fill="none" id="PPC-to-PAY"/><polygon points="374.01,456.46,383.828,457.235,378.725,454.795,381.165,449.692,374.01,456.46" fill="#181818" style="stroke:#181818;stroke-width:1;stroke-linejoin:miter;stroke-miterlimit:10;"/><text x="590.47" y="390.039" fill="#000" font-size="12" textLength="47.719">payload</text><text x="638.189" y="390.039" fill="#000" font-size="12"> </text><text x="642.003" y="390.039" fill="#000" font-size="12" textLength="58.547">shutdown</text></g><!--link BOOT to LINDOM--><g class="link" data-entity-1="ent0002" data-entity-2="ent0014" id="lnk26" data-source-line="65" data-link-type="dependency"><path d="M636.47,65.75 C509.89,80.82 106.27,136.02 30.47,234.93 C6,266.87 17.65,308.95 63.47,369.9 C88.04,402.585 126.215,428.045 158.65,445.474 C174.868,454.188 189.65,460.895 200.579,465.493 C203.312,466.642 205.803,467.66 208.016,468.544 C209.123,468.986 205.501,467.579 206.464,467.954" style="stroke:#181818;stroke-width:1;stroke-dasharray:7,7;" fill="none" id="BOOT-to-LINDOM"/><polygon points="211.122,469.77,204.19,462.774,206.464,467.954,201.284,470.228,211.122,469.77" fill="#181818" style="stroke:#181818;stroke-width:1;stroke-linejoin:miter;stroke-miterlimit:10;"/><text x="31.47" y="254.069" fill="#000" font-size="12" textLength="62.918">Linux-core</text><text x="94.388" y="254.069" fill="#000" font-size="12"> </text><text x="98.202" y="254.069" fill="#000" font-size="12" textLength="50.66">bring-up</text><text x="148.863" y="254.069" fill="#000" font-size="12"> </text><text x="152.677" y="254.069" fill="#000" font-size="12" textLength="65.508">monitoring</text></g><!--link PDUIF to PDUHW--><g class="link" data-entity-1="ent0011" data-entity-2="ent0017" id="lnk27" data-source-line="66" data-link-type="dependency"><path d="M732.47,491.29 C732.47,518.87 732.47,569.2 732.47,596.65" style="stroke:#181818;stroke-width:1;" fill="none" id="PDUIF-to-PDUHW"/><polygon points="732.47,601.65,736.47,592.65,732.47,596.65,728.47,592.65,732.47,601.65" fill="#181818" style="stroke:#181818;stroke-width:1;stroke-linejoin:miter;stroke-miterlimit:10;"/><text x="733.47" y="551.009" fill="#000" font-size="12" textLength="18.955">rail</text><text x="752.425" y="551.009" fill="#000" font-size="12"> </text><text x="756.24" y="551.009" fill="#000" font-size="12" textLength="56.865">switching</text></g><?plantuml-src dLLVRzis47_NfpYamBe1iPUb7LhueO0jsus19Z8i5q61lfmbIY9CaG99LVM60ViG_OJx93jIZYGdxaF20875-_UxkzyTNyDoljf068Sh-E_V7s0Brdvm2Lajn2Kqt1R0lZ5z0Cq4MguaQQ65H2jZc05k3UnKBLFKXt7m6XPErnPSvf1gRAHpbMjs06uWKTAoxtP2HkxJ58haIee3PAY1ILNd1LW51W_GK11oHvvC2ycYs1kIZc5BA9j22GOLJsojcND6OTGk6IKcuIC7VLpLfN20FYxk5flfTZ67JAloZ9BFdAM4oIUMSS4kNIKaPJpIjGHJ2Mx75QKNc3sN5MeiAPUoKf996zi38T4iiIXpmGOg5IPxpDdF5Ko1gMfSgJ8KPYYHAcM6LV3cQd2fKUxTvP_l1vSfox0MTacbZVbV3Fwu7WWRZTKzJwc5rs-ldYA3lmE06VtEjUjWg8JIy6hfZvCedJ9zl7tdJ_3FkH8ynyyRVqxyf6XnXuQzo0rrUFIiqvESOZ0DtpXhWeU2N7JpS05eskbujPWkhvSpZwvF-MAcb7MQNd4MHTjJSMpHCjCfn5kYO7ogibODnVy5rdWG2bC8gOTQYSvclGvVbE1npFnazPdDgSepL-LksZVRA8O2HUQZpMURhS-nQyS50SfuNci_zdqkuV8ZjUNA_H6-Bi0DGq5CkrMIMwKTgtzTqyR8b2v_wqjwS_kuaATsNPIRs-Yk2tDYS8ysALALTwhtytDuLhz7j1Kiqnacp7Z5rN8QBXx73rLP8ksl7Krfsv8v4zollCy4gMt5_FDgUIx8D0hZFZd_zSXzJ3mGj40OH9hJJRj3ErvCjz5cjRZRddF-YSlwEwIgH2wzzgVLtJnwKi07_iGgimrgrkDPJx-Sy_lG5cg-Jfr5gtnp_yHpMmvkhEQxsWCVbeGCUk_FvocNXgUicyV03H7v-70S5fX0Mu2T8zEehcY76bfrmL7iD6b4ICtIPZJSmyF4S_K5QD2_Q2VlMU2OVW9e4Cawmbn-bJkt1nAo8AQPmBFsn0G5KgNf2PNM3A4JQIVjWh5ezf0KBDcFk0nSIZurJxa9LBu7XXxYnB-gMDk2niiUXivw6arWmnBbsKiHwJzHsvNug-JKEOu2r8265dNEh8yv7d_mVA68HpwPehRqFicsCKv-vD-nCQD44TcwxfJTu0SjzcCMn989lLrSz4dy3m00?></g></svg>